<svg width="89" height="32" viewBox="0 0 89 32" fill="none" xmlns="http://www.w3.org/2000/svg">
<g id="Logo">
<g id="Group">
<path id="Vector" d="M24.9966 6.98988C25.7267 6.88041 26.5668 6.81199 27.1865 7.26359C27.5722 7.55091 27.7099 8.07095 27.6823 8.53637C27.7099 9.30273 27.3518 10.1239 26.6633 10.5208C26.0572 10.8493 25.3273 10.8765 24.6523 10.8082C24.1978 10.7535 23.7434 10.5072 23.5092 10.0966C22.9857 8.90593 23.6331 7.22255 24.9966 6.98988ZM3.15254 7.8521C3.1938 7.44149 3.56571 7.07198 3.99264 7.08574C7.17433 7.08574 10.3421 7.09936 13.5099 7.08574C13.8543 7.05836 14.2262 7.20883 14.3914 7.50992C14.6254 7.92053 14.4189 8.37214 14.3914 8.79646C14.295 9.37116 14.3225 10.1377 13.6477 10.3566C11.3338 10.425 9.01987 10.3566 6.70594 10.3839C6.4856 11.8346 6.27902 13.2716 6.05858 14.7086C6.05858 14.7634 6.07242 14.8866 6.07242 14.9412C7.76649 14.9276 9.46055 14.9412 11.1546 14.9276C11.6229 14.9002 12.1187 15.2973 12.0774 15.7898C12.0361 16.2962 11.9259 16.7889 11.8571 17.2953C11.8019 17.6374 11.5265 17.9522 11.1684 18.0206C9.28141 18.0617 7.36691 17.9796 5.48017 18.0617C5.17706 20.1282 4.81894 22.1947 4.50214 24.2614C4.46093 24.672 4.13027 25.0278 3.71709 25.0413C2.93211 25.0551 2.14695 25.0551 1.36196 25.0413C0.852371 25.0551 0.439142 24.4938 0.576817 24.0149C1.41722 18.6229 2.28488 13.2444 3.15254 7.8521ZM17.1459 7.11297C17.8622 7.05831 18.5921 7.09936 19.3084 7.08574C19.7491 7.05836 20.1899 7.40045 20.2311 7.8521C20.2311 8.20785 20.1347 8.56375 20.0934 8.91955C19.5149 12.5874 18.9227 16.2553 18.3441 19.9231C18.2615 20.5116 18.11 21.1411 18.2891 21.7433C18.4957 22.3454 19.4184 22.0854 19.6388 22.7149C19.7765 23.2213 19.625 23.755 19.5837 24.2751C19.5424 24.9594 18.7573 25.1099 18.2203 25.2606C17.0496 25.4795 15.6308 25.3153 14.7907 24.3572C14.1847 23.6593 14.1433 22.6738 14.2674 21.7981C14.9973 17.1449 15.7272 12.4917 16.4711 7.82472C16.5124 7.48254 16.7878 7.16778 17.1459 7.11297ZM44.4855 7.8521C44.5267 7.44149 44.8986 7.08574 45.3118 7.08574H47.4054C47.9287 7.07198 48.3558 7.63316 48.2318 8.12576C47.7497 11.1641 47.2539 14.2024 46.7719 17.2405C47.5018 17.1311 48.3283 16.9942 48.8379 16.4057C49.6917 15.4476 50.3943 14.3393 50.9175 13.176C51.0965 12.7243 51.193 12.0674 51.7853 11.9852C52.5704 11.9579 53.3691 11.9715 54.1542 11.9852C54.6914 11.9715 55.0908 12.5737 54.9117 13.0664C54.7051 13.7919 54.3608 14.4624 54.0028 15.1056C53.2039 16.3921 52.3225 17.6649 51.1654 18.6776C51.675 20.1967 52.3225 21.6748 52.8871 23.1666C53.0523 23.6593 53.4519 24.234 53.0799 24.7132C52.6529 25.2879 51.8541 25.0004 51.2619 25.0688C50.642 25.0004 49.7468 25.3152 49.4025 24.6173C48.7551 23.1254 48.2181 21.5928 47.5568 20.1009C47.1712 20.1145 46.7718 20.1283 46.3861 20.0873C46.3587 20.142 46.3036 20.2514 46.2759 20.3063C46.0693 21.6748 45.849 23.0434 45.6286 24.4119C45.5459 24.7404 45.2842 25.0279 44.9262 25.0553C44.1963 25.0826 43.4525 25.0688 42.7087 25.0688C42.3919 25.0688 42.1027 24.8636 41.965 24.5899C41.8272 24.316 41.9098 24.0014 41.9513 23.7003C42.8051 18.4176 43.6453 13.1348 44.4855 7.8521ZM82.7608 9.34388C82.8572 8.96055 83.229 8.7006 83.6148 8.71422C84.1657 8.72798 84.7304 8.7006 85.295 8.72798C85.7496 8.7416 86.1077 9.19326 86.0525 9.6312C85.9699 10.4113 85.777 11.1915 85.722 11.9714C86.2591 11.9714 86.81 11.9578 87.3472 11.9714C87.8293 11.9714 88.2287 12.4642 88.146 12.9294C88.0771 13.3538 87.9807 13.7644 87.9118 14.1885C87.843 14.5445 87.5401 14.8318 87.1957 14.8865C86.5346 14.9276 85.8873 14.8592 85.2399 14.9276C84.9645 16.7614 84.6615 18.5953 84.3722 20.4294C84.3308 20.8536 84.3034 21.3325 84.5513 21.7021C84.9232 22.1538 85.5704 21.9894 86.0939 22.0443C86.5071 22.1674 86.7687 22.6191 86.6998 23.0298C86.6309 23.495 86.6172 23.9603 86.5071 24.4119C86.3418 24.9182 85.7495 25.0141 85.2949 25.1372C84.0416 25.4658 82.5955 25.4658 81.4799 24.7404C80.447 24.0423 80.2816 22.6875 80.3918 21.5378C80.681 19.3207 81.1356 17.1173 81.3835 14.8865C80.9979 14.9001 80.5295 14.9549 80.2404 14.6127C79.9098 14.2707 80.0751 13.7642 80.1301 13.3399C80.2129 12.8883 80.199 12.2998 80.6949 12.0534C81.0942 11.9028 81.5489 12.0124 81.9758 11.9576C82.2374 11.0819 82.4853 10.206 82.7608 9.34388ZM74.979 13.778C75.8467 12.9158 76.8934 12.2041 78.0917 11.8484C78.615 11.6157 79.2899 12.0537 79.2762 12.6285C79.1798 13.3812 79.0007 14.1201 78.8768 14.8592C78.8216 15.2287 78.5049 15.5435 78.1329 15.5846C76.7832 15.8171 75.6125 16.6245 74.676 17.5826C74.4419 17.8701 74.0975 18.1438 74.0562 18.5406C73.767 20.4566 73.464 22.3727 73.161 24.2887C73.1197 24.6992 72.7615 25.0963 72.3346 25.0689H70.241C69.759 25.0963 69.3321 24.6173 69.3871 24.1382C69.9931 20.3472 70.5993 16.57 71.1914 12.7789C71.219 12.3958 71.4945 12.0262 71.8938 11.9851C72.4034 11.9578 72.913 11.9714 73.4364 11.9714C73.8496 11.9714 74.2352 12.3409 74.2352 12.7653C74.2352 13.3537 74.1802 13.9559 74.1664 14.558C74.497 14.3529 74.7036 14.0244 74.979 13.778ZM23.4953 12.0399C24.2391 11.8894 25.0103 12.0126 25.7541 11.9715C26.1811 11.9168 26.6356 12.1905 26.7044 12.6148C26.7596 12.9979 26.6493 13.3675 26.6079 13.7371C26.0433 17.2544 25.4785 20.7716 24.9276 24.2888C24.8863 24.6859 24.5559 25.0827 24.1288 25.0689C23.3852 25.0689 22.6414 25.0827 21.8839 25.0554C21.4156 25.0005 21.0712 24.4669 21.1953 24.0151C21.7875 20.3611 22.3523 16.7206 22.9445 13.0664C22.972 12.6695 23.0822 12.2041 23.4953 12.0399ZM68.0649 12.218C66.0127 11.8346 63.9193 11.5609 61.8394 11.7662C59.9801 11.9989 58.107 12.8338 56.9639 14.3529C55.38 16.351 54.8428 19.0335 55.2008 21.5244C55.3937 22.715 55.917 23.9194 56.895 24.6584C57.804 25.3564 59.0298 25.4521 60.1317 25.2742C61.6741 24.9731 62.9826 23.9879 64.057 22.8929C64.112 23.3582 64.0018 23.8236 64.0294 24.2752C64.057 24.6994 64.4426 25.0963 64.8695 25.0689H66.2745C66.6876 25.0689 67.032 24.6858 67.0596 24.2888C67.6518 20.5799 68.244 16.8847 68.8225 13.1896C68.905 12.7242 68.5333 12.2726 68.0649 12.218ZM64.1948 18.6639C63.6438 19.6904 62.8724 20.621 62.0047 21.4147C61.509 21.8253 60.8753 22.2496 60.2006 22.1128C59.5394 21.976 59.2226 21.2917 59.0712 20.7031C58.7269 19.1704 59.0436 17.5006 59.9112 16.1731C60.2969 15.5571 60.9167 15.0919 61.6329 14.9003C62.6383 14.6539 63.6989 14.7771 64.6769 15.0508L64.7319 15.1056C64.608 16.2962 64.3738 17.4732 64.1948 18.6639ZM41.0285 16.6111C41.0146 15.2424 40.6428 13.8055 39.6787 12.779C39.0177 12.0537 38.0259 11.6842 37.0619 11.6977C35.4641 11.6431 33.9629 12.4232 32.7922 13.4632C32.5304 13.6686 32.3514 13.9697 32.0623 14.1339C32.0623 13.6821 32.1035 13.2306 32.0897 12.7653C32.1035 12.3409 31.7041 11.9715 31.2909 11.9715H29.886C29.4454 11.9715 29.0872 12.3548 29.0596 12.7789C28.1919 18.2533 27.3106 23.7277 26.4428 29.2021C26.3189 29.7084 26.7597 30.2285 27.2831 30.2148C28.0543 30.2011 28.8394 30.2696 29.5969 30.1599C30.203 29.9957 30.1891 29.2977 30.2856 28.7914C30.5059 27.587 30.6575 26.3826 30.7952 25.1646C33.5085 25.6846 36.6625 25.3289 38.6871 23.2896C40.3398 21.4969 41.111 19.0197 41.0285 16.6111ZM37.172 17.9933C37.0895 19.2524 36.6349 20.5252 35.7535 21.4421C34.6104 22.5234 32.8748 22.3727 31.47 22.0033C31.4426 21.9622 31.4011 21.88 31.3874 21.8391C31.6077 20.6484 31.7179 19.444 31.9934 18.267C32.7647 17.008 33.7012 15.7351 35.0372 15.0372C35.533 14.8046 36.2079 14.8593 36.566 15.311C37.172 16.0637 37.2271 17.0764 37.172 17.9933Z" fill="white" stroke="white" stroke-width="0.00363783"/>
</g>
</g>
</svg>
